<svg xmlns="http://www.w3.org/2000/svg" xmlns:xlink="http://www.w3.org/1999/xlink" width="1920" zoomAndPan="magnify" viewBox="0 0 1440 809.999993" height="1080" preserveAspectRatio="xMidYMid meet" version="1.0"><defs><clipPath id="cc94f8c51d"><path d="M 0 504.382812 L 1440 504.382812 L 1440 796.882812 L 0 796.882812 Z M 0 504.382812 " clip-rule="nonzero"/></clipPath><clipPath id="79845455b2"><path d="M 0 572.410156 L 1440 572.410156 L 1440 810 L 0 810 Z M 0 572.410156 " clip-rule="nonzero"/></clipPath><clipPath id="2593319c3b"><path d="M 0 625.816406 L 1440 625.816406 L 1440 810 L 0 810 Z M 0 625.816406 " clip-rule="nonzero"/></clipPath></defs><g clip-path="url(#cc94f8c51d)"><path fill="#1c3d4a" d="M 1480.804688 518.75 C 1480.804688 510.785156 1474.234375 504.355469 1466.273438 504.585938 C 1337.371094 508.28125 1332.53125 561.054688 1194.292969 561.054688 C 1051.035156 561.054688 1051.035156 504.382812 907.78125 504.382812 C 764.523438 504.382812 764.523438 561.054688 621.269531 561.054688 C 478.015625 561.054688 478.015625 504.382812 334.765625 504.382812 C 191.511719 504.382812 191.511719 561.054688 48.261719 561.054688 C -89.976562 561.054688 -94.8125 508.28125 -223.710938 504.585938 C -231.675781 504.355469 -238.242188 510.785156 -238.242188 518.75 L -238.242188 783.019531 C -238.242188 790.84375 -231.898438 797.1875 -224.074219 797.1875 L 1466.636719 797.1875 C 1474.460938 797.1875 1480.804688 790.84375 1480.804688 783.019531 Z M 1480.804688 518.75 " fill-opacity="1" fill-rule="nonzero"/></g><g clip-path="url(#79845455b2)"><path fill="#23849a" d="M 1468.609375 586.675781 C 1468.609375 578.765625 1462.089844 572.386719 1454.179688 572.613281 C 1326.195312 576.28125 1321.390625 628.683594 1184.128906 628.683594 C 1041.886719 628.683594 1041.886719 572.410156 899.644531 572.410156 C 757.40625 572.410156 757.40625 628.683594 615.164062 628.683594 C 472.925781 628.683594 472.925781 572.410156 330.6875 572.410156 C 188.453125 572.410156 188.453125 628.683594 46.21875 628.683594 C -91.042969 628.683594 -95.847656 576.28125 -223.832031 572.613281 C -231.738281 572.386719 -238.257812 578.765625 -238.257812 586.675781 L -238.257812 849.074219 C -238.257812 856.84375 -231.960938 863.140625 -224.191406 863.140625 L 1454.542969 863.140625 C 1462.3125 863.140625 1468.609375 856.84375 1468.609375 849.074219 Z M 1468.609375 586.675781 " fill-opacity="1" fill-rule="nonzero"/></g><g clip-path="url(#2593319c3b)"><path fill="#77bfbe" d="M 1448.078125 640.082031 C 1448.078125 632.171875 1441.558594 625.789062 1433.652344 626.015625 C 1305.664062 629.6875 1300.859375 682.085938 1163.597656 682.085938 C 1021.355469 682.085938 1021.355469 625.816406 879.113281 625.816406 C 736.875 625.816406 736.875 682.085938 594.632812 682.085938 C 452.394531 682.085938 452.394531 625.816406 310.15625 625.816406 C 167.921875 625.816406 167.921875 682.085938 25.6875 682.085938 C -111.574219 682.085938 -116.378906 629.6875 -244.359375 626.015625 C -252.269531 625.789062 -258.789062 632.171875 -258.789062 640.082031 L -258.789062 902.476562 C -258.789062 910.246094 -252.492188 916.546875 -244.722656 916.546875 L 1434.011719 916.546875 C 1441.78125 916.546875 1448.078125 910.246094 1448.078125 902.476562 Z M 1448.078125 640.082031 " fill-opacity="1" fill-rule="nonzero"/></g></svg>