<svg xmlns="http://www.w3.org/2000/svg" xmlns:xlink="http://www.w3.org/1999/xlink" width="1920" zoomAndPan="magnify" viewBox="0 0 1440 809.999993" height="1080" preserveAspectRatio="xMidYMid meet" version="1.0"><defs><clipPath id="87ad3ae132"><path d="M 823 25.734375 L 1243 25.734375 L 1243 102 L 823 102 Z M 823 25.734375 " clip-rule="nonzero"/></clipPath><clipPath id="2e0d62e990"><path d="M 759.632812 416 L 861 416 L 861 428 L 759.632812 428 Z M 759.632812 416 " clip-rule="nonzero"/></clipPath><clipPath id="82177773ab"><path d="M 759.632812 371 L 809 371 L 809 417 L 759.632812 417 Z M 759.632812 371 " clip-rule="nonzero"/></clipPath><clipPath id="20ecb24d56"><path d="M 1229.53125 500 L 1234.714844 500 L 1234.714844 810 L 1229.53125 810 Z M 1229.53125 500 " clip-rule="nonzero"/></clipPath><clipPath id="1e517f76e9"><path d="M 1253.566406 500 L 1258.75 500 L 1258.75 810 L 1253.566406 810 Z M 1253.566406 500 " clip-rule="nonzero"/></clipPath><clipPath id="27f6c4308c"><path d="M 1235 25.734375 L 1252 25.734375 L 1252 42 L 1235 42 Z M 1235 25.734375 " clip-rule="nonzero"/></clipPath><clipPath id="712e21f35d"><path d="M 1293 140 L 1358.882812 140 L 1358.882812 164.328125 L 1293 164.328125 Z M 1293 140 " clip-rule="nonzero"/></clipPath></defs><rect x="-144" width="1728" fill="#ffffff" y="-80.999999" height="971.999992" fill-opacity="1"/><rect x="-144" width="1728" fill="#d9f8ff" y="-80.999999" height="971.999992" fill-opacity="1"/><path fill="#000000" d="M 1325.53125 124.089844 L 1249.664062 31.414062 L 1250.722656 30.550781 L 1326.585938 123.226562 L 1325.53125 124.089844 " fill-opacity="1" fill-rule="nonzero"/><path fill="#000000" d="M 809.527344 359.433594 L 808.167969 359.433594 L 808.167969 145.238281 L 809.527344 145.238281 L 809.527344 359.433594 " fill-opacity="1" fill-rule="nonzero"/><g clip-path="url(#87ad3ae132)"><path fill="#000000" d="M 823.464844 101.164062 L 823.308594 100.269531 L 1242.621094 25.765625 L 1242.78125 26.660156 L 823.464844 101.164062 " fill-opacity="1" fill-rule="nonzero"/></g><path fill="#000000" d="M 809.273438 132.679688 L 808.421875 132.363281 L 818.414062 105.105469 L 819.269531 105.417969 L 809.273438 132.679688 " fill-opacity="1" fill-rule="nonzero"/><path fill="#000000" d="M 810.894531 365.792969 L 806.804688 365.792969 L 806.804688 359.433594 L 810.894531 359.433594 L 810.894531 365.792969 " fill-opacity="1" fill-rule="nonzero"/><path fill="#000000" d="M 808.441406 364.429688 L 808.441406 367.277344 C 808.441406 367.277344 808.441406 368.085938 808.847656 368.085938 C 809.253906 368.085938 810.066406 368.085938 810.066406 368.902344 C 810.066406 369.714844 810.066406 370.53125 810.066406 370.53125 C 810.066406 370.53125 810.066406 371.339844 808.847656 371.339844 C 807.628906 371.339844 807.628906 370.53125 807.628906 370.53125 C 807.628906 370.53125 807.222656 368.902344 806.816406 370.53125 C 806.816406 370.53125 806.816406 372.15625 808.847656 372.15625 C 810.878906 372.15625 810.878906 370.53125 810.878906 370.53125 L 810.878906 368.902344 C 810.878906 368.902344 810.878906 367.277344 809.253906 367.277344 L 809.253906 364.429688 L 808.441406 364.429688 " fill-opacity="1" fill-rule="nonzero"/><g clip-path="url(#2e0d62e990)"><path fill="#000000" d="M 860.785156 427.5625 L 759.636719 427.5625 L 759.636719 416.203125 L 860.785156 416.203125 L 860.785156 427.5625 " fill-opacity="1" fill-rule="nonzero"/></g><g clip-path="url(#82177773ab)"><path fill="#000000" d="M 759.9375 416.84375 L 759.632812 416.507812 L 808.695312 371.988281 L 809 372.320312 L 759.9375 416.84375 " fill-opacity="1" fill-rule="nonzero"/></g><path fill="#000000" d="M 860.488281 416.847656 L 808.699219 372.324219 L 808.996094 371.980469 L 860.785156 416.503906 L 860.488281 416.847656 " fill-opacity="1" fill-rule="nonzero"/><path fill="#c8c3c5" d="M 760.109375 427.089844 L 760.109375 416.675781 L 860.3125 416.675781 L 860.3125 427.089844 L 760.109375 427.089844 " fill-opacity="1" fill-rule="nonzero"/><path fill="#000000" d="M 1248.410156 106.425781 L 1222.097656 106.425781 L 1218.109375 89.226562 L 1248.410156 89.226562 L 1248.410156 106.425781 " fill-opacity="1" fill-rule="nonzero"/><g clip-path="url(#20ecb24d56)"><path fill="#1c3d4a" d="M 1234.265625 869.867188 L 1229.675781 869.867188 L 1229.675781 500.011719 L 1234.265625 500.011719 L 1234.265625 869.867188 " fill-opacity="1" fill-rule="nonzero"/></g><g clip-path="url(#1e517f76e9)"><path fill="#1c3d4a" d="M 1258.371094 869.867188 L 1253.777344 869.867188 L 1253.777344 500.011719 L 1258.371094 500.011719 L 1258.371094 869.867188 " fill-opacity="1" fill-rule="nonzero"/></g><path fill="#1c3d4a" d="M 1258.371094 808.566406 L 1229.675781 829.230469 L 1229.675781 825.785156 L 1258.371094 805.121094 L 1258.371094 808.566406 " fill-opacity="1" fill-rule="nonzero"/><path fill="#1c3d4a" d="M 1229.675781 787.90625 L 1258.371094 808.566406 L 1258.371094 805.121094 L 1229.675781 784.464844 L 1229.675781 787.90625 " fill-opacity="1" fill-rule="nonzero"/><path fill="#1c3d4a" d="M 1258.371094 767.929688 L 1229.675781 788.59375 L 1229.675781 785.152344 L 1258.371094 764.492188 L 1258.371094 767.929688 " fill-opacity="1" fill-rule="nonzero"/><path fill="#1c3d4a" d="M 1229.675781 747.269531 L 1258.371094 767.929688 L 1258.371094 764.492188 L 1229.675781 743.828125 L 1229.675781 747.269531 " fill-opacity="1" fill-rule="nonzero"/><path fill="#1c3d4a" d="M 1258.371094 727.300781 L 1229.675781 747.960938 L 1229.675781 744.515625 L 1258.371094 723.855469 L 1258.371094 727.300781 " fill-opacity="1" fill-rule="nonzero"/><path fill="#1c3d4a" d="M 1229.675781 706.636719 L 1258.371094 727.300781 L 1258.371094 723.855469 L 1229.675781 703.191406 L 1229.675781 706.636719 " fill-opacity="1" fill-rule="nonzero"/><path fill="#1c3d4a" d="M 1258.371094 686.664062 L 1229.675781 707.324219 L 1229.675781 703.878906 L 1258.371094 683.21875 L 1258.371094 686.664062 " fill-opacity="1" fill-rule="nonzero"/><path fill="#1c3d4a" d="M 1229.675781 666 L 1258.371094 686.664062 L 1258.371094 683.21875 L 1229.675781 662.554688 L 1229.675781 666 " fill-opacity="1" fill-rule="nonzero"/><path fill="#1c3d4a" d="M 1258.371094 646.027344 L 1229.675781 666.6875 L 1229.675781 663.242188 L 1258.371094 642.585938 L 1258.371094 646.027344 " fill-opacity="1" fill-rule="nonzero"/><path fill="#1c3d4a" d="M 1229.675781 625.363281 L 1258.371094 646.027344 L 1258.371094 642.585938 L 1229.675781 621.921875 L 1229.675781 625.363281 " fill-opacity="1" fill-rule="nonzero"/><path fill="#1c3d4a" d="M 1258.371094 605.390625 L 1229.675781 626.050781 L 1229.675781 622.609375 L 1258.371094 601.949219 L 1258.371094 605.390625 " fill-opacity="1" fill-rule="nonzero"/><path fill="#1c3d4a" d="M 1229.675781 584.730469 L 1258.371094 605.390625 L 1258.371094 601.949219 L 1229.675781 581.285156 L 1229.675781 584.730469 " fill-opacity="1" fill-rule="nonzero"/><path fill="#1c3d4a" d="M 1258.371094 564.757812 L 1229.675781 585.417969 L 1229.675781 581.976562 L 1258.371094 561.3125 L 1258.371094 564.757812 " fill-opacity="1" fill-rule="nonzero"/><path fill="#1c3d4a" d="M 1229.675781 544.09375 L 1258.371094 564.757812 L 1258.371094 561.3125 L 1229.675781 540.652344 L 1229.675781 544.09375 " fill-opacity="1" fill-rule="nonzero"/><path fill="#1c3d4a" d="M 1258.371094 524.121094 L 1229.675781 544.785156 L 1229.675781 541.339844 L 1258.371094 520.675781 L 1258.371094 524.121094 " fill-opacity="1" fill-rule="nonzero"/><path fill="#1c3d4a" d="M 1229.675781 503.460938 L 1258.371094 524.121094 L 1258.371094 520.675781 L 1229.675781 500.011719 L 1229.675781 503.460938 " fill-opacity="1" fill-rule="nonzero"/><path fill="#1c3d4a" d="M 1258.371094 503.460938 L 1229.675781 503.460938 L 1229.675781 500.011719 L 1258.371094 500.011719 L 1258.371094 503.460938 " fill-opacity="1" fill-rule="nonzero"/><path fill="#1c3d4a" d="M 1258.371094 544.09375 L 1229.675781 544.09375 L 1229.675781 540.652344 L 1258.371094 540.652344 L 1258.371094 544.09375 " fill-opacity="1" fill-rule="nonzero"/><path fill="#1c3d4a" d="M 1258.371094 584.730469 L 1229.675781 584.730469 L 1229.675781 581.285156 L 1258.371094 581.285156 L 1258.371094 584.730469 " fill-opacity="1" fill-rule="nonzero"/><path fill="#1c3d4a" d="M 1258.371094 625.363281 L 1229.675781 625.363281 L 1229.675781 621.921875 L 1258.371094 621.921875 L 1258.371094 625.363281 " fill-opacity="1" fill-rule="nonzero"/><path fill="#1c3d4a" d="M 1258.371094 666 L 1229.675781 666 L 1229.675781 662.554688 L 1258.371094 662.554688 L 1258.371094 666 " fill-opacity="1" fill-rule="nonzero"/><path fill="#1c3d4a" d="M 1258.371094 706.636719 L 1229.675781 706.636719 L 1229.675781 703.191406 L 1258.371094 703.191406 L 1258.371094 706.636719 " fill-opacity="1" fill-rule="nonzero"/><path fill="#1c3d4a" d="M 1258.371094 747.269531 L 1229.675781 747.269531 L 1229.675781 743.828125 L 1258.371094 743.828125 L 1258.371094 747.269531 " fill-opacity="1" fill-rule="nonzero"/><path fill="#1c3d4a" d="M 1258.371094 787.90625 L 1229.675781 787.90625 L 1229.675781 784.464844 L 1258.371094 784.464844 L 1258.371094 787.90625 " fill-opacity="1" fill-rule="nonzero"/><path fill="#1c3d4a" d="M 1229.675781 503.460938 L 1226.230469 503.460938 L 1226.230469 500.011719 L 1229.675781 500.011719 L 1229.675781 503.460938 " fill-opacity="1" fill-rule="nonzero"/><path fill="#1c3d4a" d="M 1229.675781 544.09375 L 1226.230469 544.09375 L 1226.230469 540.652344 L 1229.675781 540.652344 L 1229.675781 544.09375 " fill-opacity="1" fill-rule="nonzero"/><path fill="#1c3d4a" d="M 1229.675781 584.730469 L 1226.230469 584.730469 L 1226.230469 581.285156 L 1229.675781 581.285156 L 1229.675781 584.730469 " fill-opacity="1" fill-rule="nonzero"/><path fill="#1c3d4a" d="M 1229.675781 625.363281 L 1226.230469 625.363281 L 1226.230469 621.921875 L 1229.675781 621.921875 L 1229.675781 625.363281 " fill-opacity="1" fill-rule="nonzero"/><path fill="#1c3d4a" d="M 1229.675781 666 L 1226.230469 666 L 1226.230469 662.554688 L 1229.675781 662.554688 L 1229.675781 666 " fill-opacity="1" fill-rule="nonzero"/><path fill="#1c3d4a" d="M 1229.675781 706.636719 L 1226.230469 706.636719 L 1226.230469 703.191406 L 1229.675781 703.191406 L 1229.675781 706.636719 " fill-opacity="1" fill-rule="nonzero"/><path fill="#1c3d4a" d="M 1229.675781 747.269531 L 1226.230469 747.269531 L 1226.230469 743.828125 L 1229.675781 743.828125 L 1229.675781 747.269531 " fill-opacity="1" fill-rule="nonzero"/><path fill="#1c3d4a" d="M 1229.675781 787.90625 L 1226.230469 787.90625 L 1226.230469 784.464844 L 1229.675781 784.464844 L 1229.675781 787.90625 " fill-opacity="1" fill-rule="nonzero"/><path fill="#1c3d4a" d="M 1226.347656 865.730469 L 1226.117188 865.730469 L 1226.117188 503.460938 L 1226.347656 503.460938 L 1226.347656 865.730469 " fill-opacity="1" fill-rule="nonzero"/><path fill="#1c3d4a" d="M 1234.183594 503.382812 L 1229.589844 503.382812 L 1229.589844 133.535156 L 1234.183594 133.535156 L 1234.183594 503.382812 " fill-opacity="1" fill-rule="nonzero"/><path fill="#1c3d4a" d="M 1258.285156 503.382812 L 1253.695312 503.382812 L 1253.695312 133.535156 L 1258.285156 133.535156 L 1258.285156 503.382812 " fill-opacity="1" fill-rule="nonzero"/><path fill="#1c3d4a" d="M 1258.285156 503.382812 L 1229.589844 503.382812 L 1229.589844 499.9375 L 1258.285156 499.9375 L 1258.285156 503.382812 " fill-opacity="1" fill-rule="nonzero"/><path fill="#1c3d4a" d="M 1258.285156 482.722656 L 1229.589844 503.382812 L 1229.589844 499.9375 L 1258.285156 479.277344 L 1258.285156 482.722656 " fill-opacity="1" fill-rule="nonzero"/><path fill="#1c3d4a" d="M 1229.589844 462.058594 L 1258.285156 482.722656 L 1258.285156 479.277344 L 1229.589844 458.617188 L 1229.589844 462.058594 " fill-opacity="1" fill-rule="nonzero"/><path fill="#1c3d4a" d="M 1258.285156 442.085938 L 1229.589844 462.746094 L 1229.589844 459.304688 L 1258.285156 438.644531 L 1258.285156 442.085938 " fill-opacity="1" fill-rule="nonzero"/><path fill="#1c3d4a" d="M 1229.589844 421.421875 L 1258.285156 442.085938 L 1258.285156 438.644531 L 1229.589844 417.980469 L 1229.589844 421.421875 " fill-opacity="1" fill-rule="nonzero"/><path fill="#1c3d4a" d="M 1258.285156 401.453125 L 1229.589844 422.113281 L 1229.589844 418.667969 L 1258.285156 398.007812 L 1258.285156 401.453125 " fill-opacity="1" fill-rule="nonzero"/><path fill="#1c3d4a" d="M 1229.589844 380.792969 L 1258.285156 401.453125 L 1258.285156 398.007812 L 1229.589844 377.34375 L 1229.589844 380.792969 " fill-opacity="1" fill-rule="nonzero"/><path fill="#1c3d4a" d="M 1258.285156 360.816406 L 1229.589844 381.476562 L 1229.589844 378.035156 L 1258.285156 357.371094 L 1258.285156 360.816406 " fill-opacity="1" fill-rule="nonzero"/><path fill="#1c3d4a" d="M 1229.589844 340.152344 L 1258.285156 360.816406 L 1258.285156 357.371094 L 1229.589844 336.707031 L 1229.589844 340.152344 " fill-opacity="1" fill-rule="nonzero"/><path fill="#1c3d4a" d="M 1258.285156 320.179688 L 1229.589844 340.84375 L 1229.589844 337.398438 L 1258.285156 316.738281 L 1258.285156 320.179688 " fill-opacity="1" fill-rule="nonzero"/><path fill="#1c3d4a" d="M 1229.589844 299.515625 L 1258.285156 320.179688 L 1258.285156 316.738281 L 1229.589844 296.078125 L 1229.589844 299.515625 " fill-opacity="1" fill-rule="nonzero"/><path fill="#1c3d4a" d="M 1258.285156 279.542969 L 1229.589844 300.207031 L 1229.589844 296.765625 L 1258.285156 276.101562 L 1258.285156 279.542969 " fill-opacity="1" fill-rule="nonzero"/><path fill="#1c3d4a" d="M 1229.589844 258.886719 L 1258.285156 279.542969 L 1258.285156 276.101562 L 1229.589844 255.441406 L 1229.589844 258.886719 " fill-opacity="1" fill-rule="nonzero"/><path fill="#1c3d4a" d="M 1258.285156 238.910156 L 1229.589844 259.574219 L 1229.589844 256.128906 L 1258.285156 235.46875 L 1258.285156 238.910156 " fill-opacity="1" fill-rule="nonzero"/><path fill="#1c3d4a" d="M 1229.589844 218.25 L 1258.285156 238.910156 L 1258.285156 235.46875 L 1229.589844 214.804688 L 1229.589844 218.25 " fill-opacity="1" fill-rule="nonzero"/><path fill="#1c3d4a" d="M 1258.285156 198.277344 L 1229.589844 218.9375 L 1229.589844 215.492188 L 1258.285156 194.828125 L 1258.285156 198.277344 " fill-opacity="1" fill-rule="nonzero"/><path fill="#1c3d4a" d="M 1229.589844 177.613281 L 1258.285156 198.277344 L 1258.285156 194.828125 L 1229.589844 174.167969 L 1229.589844 177.613281 " fill-opacity="1" fill-rule="nonzero"/><path fill="#1c3d4a" d="M 1258.285156 157.636719 L 1229.589844 178.300781 L 1229.589844 174.859375 L 1258.285156 154.199219 L 1258.285156 157.636719 " fill-opacity="1" fill-rule="nonzero"/><path fill="#1c3d4a" d="M 1229.589844 136.976562 L 1258.285156 157.636719 L 1258.285156 154.199219 L 1229.589844 133.535156 L 1229.589844 136.976562 " fill-opacity="1" fill-rule="nonzero"/><path fill="#1c3d4a" d="M 1258.285156 136.976562 L 1229.589844 136.976562 L 1229.589844 133.535156 L 1258.285156 133.535156 L 1258.285156 136.976562 " fill-opacity="1" fill-rule="nonzero"/><path fill="#1c3d4a" d="M 1258.285156 177.613281 L 1229.589844 177.613281 L 1229.589844 174.167969 L 1258.285156 174.167969 L 1258.285156 177.613281 " fill-opacity="1" fill-rule="nonzero"/><path fill="#1c3d4a" d="M 1258.285156 218.25 L 1229.589844 218.25 L 1229.589844 214.804688 L 1258.285156 214.804688 L 1258.285156 218.25 " fill-opacity="1" fill-rule="nonzero"/><path fill="#1c3d4a" d="M 1258.285156 258.886719 L 1229.589844 258.886719 L 1229.589844 255.441406 L 1258.285156 255.441406 L 1258.285156 258.886719 " fill-opacity="1" fill-rule="nonzero"/><path fill="#1c3d4a" d="M 1258.285156 299.515625 L 1229.589844 299.515625 L 1229.589844 296.078125 L 1258.285156 296.078125 L 1258.285156 299.515625 " fill-opacity="1" fill-rule="nonzero"/><path fill="#1c3d4a" d="M 1258.285156 340.152344 L 1229.589844 340.152344 L 1229.589844 336.707031 L 1258.285156 336.707031 L 1258.285156 340.152344 " fill-opacity="1" fill-rule="nonzero"/><path fill="#1c3d4a" d="M 1258.285156 380.792969 L 1229.589844 380.792969 L 1229.589844 377.34375 L 1258.285156 377.34375 L 1258.285156 380.792969 " fill-opacity="1" fill-rule="nonzero"/><path fill="#1c3d4a" d="M 1258.285156 421.421875 L 1229.589844 421.421875 L 1229.589844 417.980469 L 1258.285156 417.980469 L 1258.285156 421.421875 " fill-opacity="1" fill-rule="nonzero"/><path fill="#1c3d4a" d="M 1258.285156 462.058594 L 1229.589844 462.058594 L 1229.589844 458.617188 L 1258.285156 458.617188 L 1258.285156 462.058594 " fill-opacity="1" fill-rule="nonzero"/><path fill="#1c3d4a" d="M 1229.589844 136.976562 L 1226.144531 136.976562 L 1226.144531 133.535156 L 1229.589844 133.535156 L 1229.589844 136.976562 " fill-opacity="1" fill-rule="nonzero"/><path fill="#1c3d4a" d="M 1229.589844 177.613281 L 1226.144531 177.613281 L 1226.144531 174.167969 L 1229.589844 174.167969 L 1229.589844 177.613281 " fill-opacity="1" fill-rule="nonzero"/><path fill="#1c3d4a" d="M 1229.589844 218.25 L 1226.144531 218.25 L 1226.144531 214.804688 L 1229.589844 214.804688 L 1229.589844 218.25 " fill-opacity="1" fill-rule="nonzero"/><path fill="#1c3d4a" d="M 1229.589844 258.886719 L 1226.144531 258.886719 L 1226.144531 255.441406 L 1229.589844 255.441406 L 1229.589844 258.886719 " fill-opacity="1" fill-rule="nonzero"/><path fill="#1c3d4a" d="M 1229.589844 299.515625 L 1226.144531 299.515625 L 1226.144531 296.078125 L 1229.589844 296.078125 L 1229.589844 299.515625 " fill-opacity="1" fill-rule="nonzero"/><path fill="#1c3d4a" d="M 1229.589844 340.152344 L 1226.144531 340.152344 L 1226.144531 336.707031 L 1229.589844 336.707031 L 1229.589844 340.152344 " fill-opacity="1" fill-rule="nonzero"/><path fill="#1c3d4a" d="M 1229.589844 380.792969 L 1226.144531 380.792969 L 1226.144531 377.34375 L 1229.589844 377.34375 L 1229.589844 380.792969 " fill-opacity="1" fill-rule="nonzero"/><path fill="#1c3d4a" d="M 1229.589844 421.421875 L 1226.144531 421.421875 L 1226.144531 417.980469 L 1229.589844 417.980469 L 1229.589844 421.421875 " fill-opacity="1" fill-rule="nonzero"/><path fill="#1c3d4a" d="M 1229.589844 462.058594 L 1226.144531 462.058594 L 1226.144531 458.617188 L 1229.589844 458.617188 L 1229.589844 462.058594 " fill-opacity="1" fill-rule="nonzero"/><path fill="#1c3d4a" d="M 1229.589844 502.695312 L 1226.144531 502.695312 L 1226.144531 499.25 L 1229.589844 499.25 L 1229.589844 502.695312 " fill-opacity="1" fill-rule="nonzero"/><path fill="#1c3d4a" d="M 1226.261719 499.25 L 1226.03125 499.25 L 1226.03125 136.976562 L 1226.261719 136.976562 L 1226.261719 499.25 " fill-opacity="1" fill-rule="nonzero"/><path fill="#1c3d4a" d="M 1247.039062 106.003906 L 1236.476562 106.003906 L 1236.476562 89.226562 L 1247.039062 89.226562 Z M 1225.6875 89.226562 L 1235.097656 89.226562 L 1235.097656 106.003906 L 1225.6875 106.003906 Z M 1218.109375 86.933594 L 1218.109375 89.226562 L 1224.308594 89.226562 L 1224.308594 106.003906 L 1222.097656 106.003906 L 1222.097656 123.207031 L 1248.414062 123.207031 L 1248.414062 86.933594 L 1218.109375 86.933594 " fill-opacity="1" fill-rule="nonzero"/><path fill="#1c3d4a" d="M 1266.265625 133.535156 L 1218.054688 133.535156 L 1218.054688 123.203125 L 1266.265625 123.203125 L 1266.265625 133.535156 " fill-opacity="1" fill-rule="nonzero"/><path fill="#1c3d4a" d="M 1266.320312 112.640625 L 1218.109375 112.640625 L 1218.109375 111.722656 L 1266.320312 111.722656 L 1266.320312 112.640625 " fill-opacity="1" fill-rule="nonzero"/><path fill="#1c3d4a" d="M 1218.570312 123.203125 L 1218.109375 123.203125 L 1218.109375 112.640625 L 1218.570312 112.640625 L 1218.570312 123.203125 " fill-opacity="1" fill-rule="nonzero"/><path fill="#1c3d4a" d="M 1220.84375 123.203125 L 1220.382812 123.203125 L 1220.382812 112.640625 L 1220.84375 112.640625 L 1220.84375 123.203125 " fill-opacity="1" fill-rule="nonzero"/><path fill="#1c3d4a" d="M 1223.117188 123.203125 L 1222.660156 123.203125 L 1222.660156 112.640625 L 1223.117188 112.640625 L 1223.117188 123.203125 " fill-opacity="1" fill-rule="nonzero"/><path fill="#1c3d4a" d="M 1225.390625 123.203125 L 1224.933594 123.203125 L 1224.933594 112.640625 L 1225.390625 112.640625 L 1225.390625 123.203125 " fill-opacity="1" fill-rule="nonzero"/><path fill="#1c3d4a" d="M 1227.664062 123.203125 L 1227.207031 123.203125 L 1227.207031 112.640625 L 1227.664062 112.640625 L 1227.664062 123.203125 " fill-opacity="1" fill-rule="nonzero"/><path fill="#1c3d4a" d="M 1229.9375 123.203125 L 1229.480469 123.203125 L 1229.480469 112.640625 L 1229.9375 112.640625 L 1229.9375 123.203125 " fill-opacity="1" fill-rule="nonzero"/><path fill="#1c3d4a" d="M 1232.210938 123.203125 L 1231.753906 123.203125 L 1231.753906 112.640625 L 1232.210938 112.640625 L 1232.210938 123.203125 " fill-opacity="1" fill-rule="nonzero"/><path fill="#1c3d4a" d="M 1234.488281 123.203125 L 1234.027344 123.203125 L 1234.027344 112.640625 L 1234.488281 112.640625 L 1234.488281 123.203125 " fill-opacity="1" fill-rule="nonzero"/><path fill="#1c3d4a" d="M 1236.761719 123.203125 L 1236.304688 123.203125 L 1236.304688 112.640625 L 1236.761719 112.640625 L 1236.761719 123.203125 " fill-opacity="1" fill-rule="nonzero"/><path fill="#1c3d4a" d="M 1239.039062 123.203125 L 1238.574219 123.203125 L 1238.574219 112.640625 L 1239.039062 112.640625 L 1239.039062 123.203125 " fill-opacity="1" fill-rule="nonzero"/><path fill="#1c3d4a" d="M 1241.308594 123.203125 L 1240.851562 123.203125 L 1240.851562 112.640625 L 1241.308594 112.640625 L 1241.308594 123.203125 " fill-opacity="1" fill-rule="nonzero"/><path fill="#1c3d4a" d="M 1243.585938 123.203125 L 1243.121094 123.203125 L 1243.121094 112.640625 L 1243.585938 112.640625 L 1243.585938 123.203125 " fill-opacity="1" fill-rule="nonzero"/><path fill="#1c3d4a" d="M 1245.855469 123.203125 L 1245.398438 123.203125 L 1245.398438 112.640625 L 1245.855469 112.640625 L 1245.855469 123.203125 " fill-opacity="1" fill-rule="nonzero"/><path fill="#1c3d4a" d="M 1248.132812 123.203125 L 1247.671875 123.203125 L 1247.671875 112.640625 L 1248.132812 112.640625 L 1248.132812 123.203125 " fill-opacity="1" fill-rule="nonzero"/><path fill="#1c3d4a" d="M 1250.402344 123.203125 L 1249.949219 123.203125 L 1249.949219 112.640625 L 1250.402344 112.640625 L 1250.402344 123.203125 " fill-opacity="1" fill-rule="nonzero"/><path fill="#1c3d4a" d="M 1252.675781 123.203125 L 1252.21875 123.203125 L 1252.21875 112.640625 L 1252.675781 112.640625 L 1252.675781 123.203125 " fill-opacity="1" fill-rule="nonzero"/><path fill="#1c3d4a" d="M 1254.953125 123.203125 L 1254.496094 123.203125 L 1254.496094 112.640625 L 1254.953125 112.640625 L 1254.953125 123.203125 " fill-opacity="1" fill-rule="nonzero"/><path fill="#1c3d4a" d="M 1257.226562 123.203125 L 1256.765625 123.203125 L 1256.765625 112.640625 L 1257.226562 112.640625 L 1257.226562 123.203125 " fill-opacity="1" fill-rule="nonzero"/><path fill="#1c3d4a" d="M 1259.5 123.203125 L 1259.039062 123.203125 L 1259.039062 112.640625 L 1259.5 112.640625 L 1259.5 123.203125 " fill-opacity="1" fill-rule="nonzero"/><path fill="#1c3d4a" d="M 1261.773438 123.203125 L 1261.316406 123.203125 L 1261.316406 112.640625 L 1261.773438 112.640625 L 1261.773438 123.203125 " fill-opacity="1" fill-rule="nonzero"/><path fill="#1c3d4a" d="M 1264.046875 123.203125 L 1263.585938 123.203125 L 1263.585938 112.640625 L 1264.046875 112.640625 L 1264.046875 123.203125 " fill-opacity="1" fill-rule="nonzero"/><path fill="#1c3d4a" d="M 1266.320312 123.203125 L 1265.863281 123.203125 L 1265.863281 112.640625 L 1266.320312 112.640625 L 1266.320312 123.203125 " fill-opacity="1" fill-rule="nonzero"/><path fill="#1c3d4a" d="M 1234.066406 133.429688 L 1229.523438 133.429688 L 1238.613281 33.484375 L 1243.148438 33.484375 L 1234.066406 133.429688 " fill-opacity="1" fill-rule="nonzero"/><path fill="#1c3d4a" d="M 1253.601562 133.429688 L 1258.140625 133.429688 L 1249.054688 33.484375 L 1244.515625 33.484375 L 1253.601562 133.429688 " fill-opacity="1" fill-rule="nonzero"/><g clip-path="url(#27f6c4308c)"><path fill="#1c3d4a" d="M 1251.328125 33.484375 C 1251.328125 29.222656 1247.871094 25.765625 1243.605469 25.765625 C 1239.339844 25.765625 1235.882812 29.222656 1235.882812 33.484375 C 1235.882812 37.753906 1239.339844 41.214844 1243.605469 41.214844 C 1247.871094 41.214844 1251.328125 37.753906 1251.328125 33.484375 " fill-opacity="1" fill-rule="nonzero"/></g><path fill="#1c3d4a" d="M 1340.824219 137.058594 L 1151.839844 137.058594 L 1151.839844 122.976562 L 1340.824219 122.976562 L 1340.824219 137.058594 " fill-opacity="1" fill-rule="nonzero"/><path fill="#1c3d4a" d="M 1338.101562 140.242188 L 1314.023438 140.242188 L 1314.023438 137.058594 L 1338.101562 137.058594 L 1338.101562 140.242188 " fill-opacity="1" fill-rule="nonzero"/><g clip-path="url(#712e21f35d)"><path fill="#1c3d4a" d="M 1359 164.320312 L 1293.125 164.320312 L 1293.125 140.242188 L 1359 140.242188 L 1359 164.320312 " fill-opacity="1" fill-rule="nonzero"/></g><path fill="#1c3d4a" d="M 831.335938 106.851562 C 831.335938 103.089844 828.285156 100.039062 824.523438 100.039062 C 820.757812 100.039062 817.707031 103.089844 817.707031 106.851562 C 817.707031 110.617188 820.757812 113.667969 824.523438 113.667969 C 828.285156 113.667969 831.335938 110.617188 831.335938 106.851562 " fill-opacity="1" fill-rule="nonzero"/><path fill="#1c3d4a" d="M 822.449219 113.183594 L 822.449219 108.59375 L 1192.300781 108.59375 L 1192.300781 113.183594 L 822.449219 113.183594 " fill-opacity="1" fill-rule="nonzero"/><path fill="#1c3d4a" d="M 799.734375 137.292969 L 799.734375 132.695312 L 1192.300781 132.695312 L 1192.300781 137.292969 L 799.734375 137.292969 " fill-opacity="1" fill-rule="nonzero"/><path fill="#1c3d4a" d="M 822.449219 137.292969 L 822.449219 108.59375 L 825.894531 108.59375 L 825.894531 137.292969 L 822.449219 137.292969 " fill-opacity="1" fill-rule="nonzero"/><path fill="#1c3d4a" d="M 843.113281 137.292969 L 822.449219 108.59375 L 825.894531 108.59375 L 846.554688 137.292969 L 843.113281 137.292969 " fill-opacity="1" fill-rule="nonzero"/><path fill="#1c3d4a" d="M 863.773438 108.59375 L 843.113281 137.292969 L 846.554688 137.292969 L 867.21875 108.59375 L 863.773438 108.59375 " fill-opacity="1" fill-rule="nonzero"/><path fill="#1c3d4a" d="M 883.746094 137.292969 L 863.085938 108.59375 L 866.527344 108.59375 L 887.191406 137.292969 L 883.746094 137.292969 " fill-opacity="1" fill-rule="nonzero"/><path fill="#1c3d4a" d="M 904.410156 108.59375 L 883.746094 137.292969 L 887.191406 137.292969 L 907.851562 108.59375 L 904.410156 108.59375 " fill-opacity="1" fill-rule="nonzero"/><path fill="#1c3d4a" d="M 924.382812 137.292969 L 903.722656 108.59375 L 907.164062 108.59375 L 927.824219 137.292969 L 924.382812 137.292969 " fill-opacity="1" fill-rule="nonzero"/><path fill="#1c3d4a" d="M 945.042969 108.59375 L 924.382812 137.292969 L 927.824219 137.292969 L 948.488281 108.59375 L 945.042969 108.59375 " fill-opacity="1" fill-rule="nonzero"/><path fill="#1c3d4a" d="M 965.015625 137.292969 L 944.355469 108.59375 L 947.800781 108.59375 L 968.460938 137.292969 L 965.015625 137.292969 " fill-opacity="1" fill-rule="nonzero"/><path fill="#1c3d4a" d="M 985.679688 108.59375 L 965.015625 137.292969 L 968.460938 137.292969 L 989.121094 108.59375 L 985.679688 108.59375 " fill-opacity="1" fill-rule="nonzero"/><path fill="#1c3d4a" d="M 1005.652344 137.292969 L 984.992188 108.59375 L 988.433594 108.59375 L 1009.097656 137.292969 L 1005.652344 137.292969 " fill-opacity="1" fill-rule="nonzero"/><path fill="#1c3d4a" d="M 1026.3125 108.59375 L 1005.652344 137.292969 L 1009.097656 137.292969 L 1029.757812 108.59375 L 1026.3125 108.59375 " fill-opacity="1" fill-rule="nonzero"/><path fill="#1c3d4a" d="M 1046.289062 137.292969 L 1025.625 108.59375 L 1029.070312 108.59375 L 1049.730469 137.292969 L 1046.289062 137.292969 " fill-opacity="1" fill-rule="nonzero"/><path fill="#1c3d4a" d="M 1066.949219 108.59375 L 1046.289062 137.292969 L 1049.730469 137.292969 L 1070.394531 108.59375 L 1066.949219 108.59375 " fill-opacity="1" fill-rule="nonzero"/><path fill="#1c3d4a" d="M 1086.921875 137.292969 L 1066.261719 108.59375 L 1069.707031 108.59375 L 1090.367188 137.292969 L 1086.921875 137.292969 " fill-opacity="1" fill-rule="nonzero"/><path fill="#1c3d4a" d="M 1107.585938 108.59375 L 1086.921875 137.292969 L 1090.367188 137.292969 L 1111.027344 108.59375 L 1107.585938 108.59375 " fill-opacity="1" fill-rule="nonzero"/><path fill="#1c3d4a" d="M 1127.558594 137.292969 L 1106.898438 108.59375 L 1110.339844 108.59375 L 1131 137.292969 L 1127.558594 137.292969 " fill-opacity="1" fill-rule="nonzero"/><path fill="#1c3d4a" d="M 1148.21875 108.59375 L 1127.558594 137.292969 L 1131 137.292969 L 1151.664062 108.59375 L 1148.21875 108.59375 " fill-opacity="1" fill-rule="nonzero"/><path fill="#1c3d4a" d="M 1168.191406 137.292969 L 1147.53125 108.59375 L 1150.976562 108.59375 L 1171.636719 137.292969 L 1168.191406 137.292969 " fill-opacity="1" fill-rule="nonzero"/><path fill="#1c3d4a" d="M 1188.855469 108.59375 L 1168.191406 137.292969 L 1171.636719 137.292969 L 1192.300781 108.59375 L 1188.855469 108.59375 " fill-opacity="1" fill-rule="nonzero"/><path fill="#1c3d4a" d="M 1188.855469 137.292969 L 1188.855469 108.59375 L 1192.300781 108.59375 L 1192.300781 137.292969 L 1188.855469 137.292969 " fill-opacity="1" fill-rule="nonzero"/><path fill="#1c3d4a" d="M 1148.21875 137.292969 L 1148.21875 108.59375 L 1151.664062 108.59375 L 1151.664062 137.292969 L 1148.21875 137.292969 " fill-opacity="1" fill-rule="nonzero"/><path fill="#1c3d4a" d="M 1107.585938 137.292969 L 1107.585938 108.59375 L 1111.027344 108.59375 L 1111.027344 137.292969 L 1107.585938 137.292969 " fill-opacity="1" fill-rule="nonzero"/><path fill="#1c3d4a" d="M 1066.949219 137.292969 L 1066.949219 108.59375 L 1070.394531 108.59375 L 1070.394531 137.292969 L 1066.949219 137.292969 " fill-opacity="1" fill-rule="nonzero"/><path fill="#1c3d4a" d="M 1026.3125 137.292969 L 1026.3125 108.59375 L 1029.757812 108.59375 L 1029.757812 137.292969 L 1026.3125 137.292969 " fill-opacity="1" fill-rule="nonzero"/><path fill="#1c3d4a" d="M 985.679688 137.292969 L 985.679688 108.59375 L 989.121094 108.59375 L 989.121094 137.292969 L 985.679688 137.292969 " fill-opacity="1" fill-rule="nonzero"/><path fill="#1c3d4a" d="M 945.042969 137.292969 L 945.042969 108.59375 L 948.488281 108.59375 L 948.488281 137.292969 L 945.042969 137.292969 " fill-opacity="1" fill-rule="nonzero"/><path fill="#1c3d4a" d="M 904.410156 137.292969 L 904.410156 108.59375 L 907.851562 108.59375 L 907.851562 137.292969 L 904.410156 137.292969 " fill-opacity="1" fill-rule="nonzero"/><path fill="#1c3d4a" d="M 863.773438 137.292969 L 863.773438 108.59375 L 867.21875 108.59375 L 867.21875 137.292969 L 863.773438 137.292969 " fill-opacity="1" fill-rule="nonzero"/><path fill="#1c3d4a" d="M 1188.855469 108.59375 L 1188.855469 105.148438 L 1192.300781 105.148438 L 1192.300781 108.59375 L 1188.855469 108.59375 " fill-opacity="1" fill-rule="nonzero"/><path fill="#1c3d4a" d="M 1148.21875 108.59375 L 1148.21875 105.148438 L 1151.664062 105.148438 L 1151.664062 108.59375 L 1148.21875 108.59375 " fill-opacity="1" fill-rule="nonzero"/><path fill="#1c3d4a" d="M 1107.585938 108.59375 L 1107.585938 105.148438 L 1111.027344 105.148438 L 1111.027344 108.59375 L 1107.585938 108.59375 " fill-opacity="1" fill-rule="nonzero"/><path fill="#1c3d4a" d="M 1066.949219 108.59375 L 1066.949219 105.148438 L 1070.394531 105.148438 L 1070.394531 108.59375 L 1066.949219 108.59375 " fill-opacity="1" fill-rule="nonzero"/><path fill="#1c3d4a" d="M 1026.3125 108.59375 L 1026.3125 105.148438 L 1029.757812 105.148438 L 1029.757812 108.59375 L 1026.3125 108.59375 " fill-opacity="1" fill-rule="nonzero"/><path fill="#1c3d4a" d="M 985.679688 108.59375 L 985.679688 105.148438 L 989.121094 105.148438 L 989.121094 108.59375 L 985.679688 108.59375 " fill-opacity="1" fill-rule="nonzero"/><path fill="#1c3d4a" d="M 945.042969 108.59375 L 945.042969 105.148438 L 948.488281 105.148438 L 948.488281 108.59375 L 945.042969 108.59375 " fill-opacity="1" fill-rule="nonzero"/><path fill="#1c3d4a" d="M 904.410156 108.59375 L 904.410156 105.148438 L 907.851562 105.148438 L 907.851562 108.59375 L 904.410156 108.59375 " fill-opacity="1" fill-rule="nonzero"/><path fill="#1c3d4a" d="M 863.773438 108.59375 L 863.773438 105.148438 L 867.21875 105.148438 L 867.21875 108.59375 L 863.773438 108.59375 " fill-opacity="1" fill-rule="nonzero"/><path fill="#1c3d4a" d="M 823.136719 108.59375 L 823.136719 105.148438 L 826.582031 105.148438 L 826.582031 108.59375 L 823.136719 108.59375 " fill-opacity="1" fill-rule="nonzero"/><path fill="#1c3d4a" d="M 826.582031 105.265625 L 826.582031 105.035156 L 1188.855469 105.035156 L 1188.855469 105.265625 L 826.582031 105.265625 " fill-opacity="1" fill-rule="nonzero"/><path fill="#1c3d4a" d="M 803.394531 132.976562 L 799.761719 132.976562 L 822.476562 108.441406 L 826.109375 108.441406 L 803.394531 132.976562 " fill-opacity="1" fill-rule="nonzero"/><path fill="#1c3d4a" d="M 817.933594 145.238281 L 799.761719 145.238281 L 799.761719 137.058594 L 817.933594 137.058594 L 817.933594 145.238281 " fill-opacity="1" fill-rule="nonzero"/></svg>